<?xml version="1.0" encoding="iso-8859-1"?>
<!-- Generator: Adobe Illustrator 19.0.0, SVG Export Plug-In . SVG Version: 6.00 Build 0)  -->
<svg version="1.1" id="Layer_1" xmlns="http://www.w3.org/2000/svg" xmlns:xlink="http://www.w3.org/1999/xlink" x="0px" y="0px"
	 viewBox="0 0 512 512" style="enable-background:new 0 0 512 512;" xml:space="preserve">
<g>
	<g>
		<path d="M501.801,109.131H10.199C4.566,109.131,0,113.698,0,119.331v33.147c0,5.633,4.566,10.199,10.199,10.199h30.206
			l14.691,230.641c0.342,5.37,4.798,9.551,10.179,9.551h25.498c5.633,0,10.199-4.566,10.199-10.199V162.677h309.036v229.992
			c0,5.633,4.566,10.199,10.199,10.199h25.498c5.381,0,9.837-4.181,10.179-9.551l14.691-230.641h31.226
			c5.633,0,10.199-4.566,10.199-10.199v-33.147C512,113.698,507.434,109.131,501.801,109.131z M80.574,382.47h-5.729L60.845,162.677
			h19.728V382.47z M436.135,382.47h-5.729V162.677h19.728L436.135,382.47z M491.602,142.279H20.398V129.53h471.203V142.279z"/>
	</g>
</g>
<g>
</g>
<g>
</g>
<g>
</g>
<g>
</g>
<g>
</g>
<g>
</g>
<g>
</g>
<g>
</g>
<g>
</g>
<g>
</g>
<g>
</g>
<g>
</g>
<g>
</g>
<g>
</g>
<g>
</g>
</svg>
